_________________________  Visit us at _________________________
  
http://p2pdl.com  ____________________________  http://p2pdl.com

Back To 1942 2012 BRRip 720p x264 AAC - PRiSTiNE

Genre: Drama
Plot: A deadly drought in 1942 takes its toll on central China's Henan province during the war against Japan.
Director: Xiaogang Feng
Stars: Adrien Brody, Tim Robbins, Daoming Chen
Rated: N/A

Info: 
http://www.imdb.com/title/tt2113822/

General
Complete name                  : Back To 1942 2012 BRRip 720p x264 AAC - PRiSTiNE.mp4
Format                         : MPEG-4
Format profile                 : Base Media
Codec ID                       : isom
File size                      : 835 MiB
Duration                       : 2h 26mn
Overall bit rate mode          : Variable
Overall bit rate               : 797 Kbps

Source                         : 720p BluRay CHD (Thanks)

Video
ID                             : 1
Format                         : AVC
Format/Info                    : Advanced Video Codec
Format profile                 : High 10@L4.1
Bit rate                       : 698 Kbps
Maximum bit rate               : 6 180 Kbps
Width                          : 1 280 pixels
Height                         : 536 pixels
Display aspect ratio           : 2.40:1
Frame rate mode                : Constant
Frame rate                     : 24.000 fps
Color space                    : YUV
Chroma subsampling             : 4:2:0
Bit depth                      : 10 bits
Scan type                      : Progressive
Bits/(Pixel*Frame)             : 0.042
Stream size                    : 731 MiB (87%)
Writing library                : x264 core 129 r2245 bc13772


Audio
Format                         : AAC
Bit rate mode                  : Variable
Bit rate                       : 96.0 Kbps
Channel(s)                     : 2 channels
Channel positions              : Front: L R
Sampling rate                  : 48.0 KHz
Stream size                    : 100 MiB (12%)
Language                       : Chinese

Subtitle                       : Yes ( English)


Screens: 
http://ultraimg.com/images/eNzYx.jpg 
http://ultraimg.com/images/Kk8iA.jpg 
http://ultraimg.com/images/os9W.jpg 
http://ultraimg.com/images/nFP5d.jpg

Thumbs: 
http://ultraimg.com/images/uG216.jpg
----------------------------------------------------------------------------------------------------
Encoded using revolutionary 10bit encoding, which enables us to provide you more crispier 
and sharper images at small sizes, just make sure you follow our instructions without a fault.
Recommend to you to use latest version of VLC player. Install K-Lite Codec Pack or shark007 codecs
in case of any kind of problem in playback (For non-VLC Media Player users). Alternatively, install
Core AVC codecs, the fastest decoder that there is coupled with Community Center Codec Pack and play
on Windows Media Player Classic. Check sample to be sure.
Enjoy!